<?xml version="1.0" standalone="no"?>
<!DOCTYPE svg PUBLIC "-//W3C//DTD SVG 20010904//EN"
 "http://www.w3.org/TR/2001/REC-SVG-20010904/DTD/svg10.dtd">
<svg version="1.0" xmlns="http://www.w3.org/2000/svg"
 width="512.000000pt" height="512.000000pt" viewBox="0 0 512.000000 512.000000"
 preserveAspectRatio="xMidYMid meet">

<g transform="translate(0.000000,512.000000) scale(0.100000,-0.100000)"
fill="#000000" stroke="none">
<path d="M312 4750 c-117 -17 -222 -97 -276 -210 l-31 -65 -3 -1865 c-2 -1365
0 -1881 8 -1925 16 -81 52 -149 111 -206 62 -60 135 -96 224 -109 96 -13 4334
-13 4430 0 172 25 303 148 335 315 8 44 10 560 8 1925 l-3 1865 -31 65 c-57
119 -159 193 -290 211 -42 6 -740 8 -1772 7 l-1704 -3 -24 -28 c-29 -34 -30
-56 -3 -90 l20 -27 1747 -2 1747 -3 41 -22 c53 -28 100 -83 113 -130 7 -23 11
-169 11 -369 l0 -331 -56 29 c-31 15 -63 28 -70 28 -11 0 -14 24 -14 108 -1
62 -6 122 -14 144 -21 60 -72 115 -134 145 l-57 28 -2065 0 -2065 0 -47 -23
c-25 -13 -64 -43 -87 -67 -67 -73 -71 -98 -71 -500 l0 -352 -48 -18 c-26 -10
-57 -25 -69 -33 l-23 -14 0 593 c0 384 4 607 11 632 13 47 60 102 113 130 40
21 54 22 429 27 370 5 389 6 403 24 30 42 12 98 -37 115 -37 13 -671 13 -757
1z m4314 -679 c42 -28 54 -63 54 -160 l0 -90 -677 -3 -678 -3 -65 -31 c-122
-58 -191 -157 -211 -299 -13 -97 -31 -131 -84 -159 -40 -21 -43 -21 -1283 -24
l-1243 -2 3 354 c3 342 4 356 24 383 11 15 36 33 55 40 26 9 507 12 2059 10
1729 -2 2028 -4 2046 -16z m220 -425 c54 -25 94 -69 113 -125 8 -25 11 -409
11 -1416 0 -1505 3 -1423 -56 -1500 -14 -19 -51 -47 -82 -62 l-57 -28 -2215 0
-2215 0 -57 28 c-31 15 -68 43 -82 62 -59 76 -56 19 -56 1244 0 1068 1 1128
19 1166 23 51 89 111 138 124 26 8 447 11 1319 11 1259 0 1283 0 1348 20 133
42 199 120 221 267 15 100 29 134 73 176 60 57 46 56 817 56 l710 1 51 -24z"/>
<path d="M3412 3507 c-27 -29 -28 -67 -3 -98 l19 -24 639 -3 c443 -2 646 1
664 8 25 11 49 47 49 74 0 7 -9 25 -21 40 l-20 26 -653 0 -653 0 -21 -23z"/>
<path d="M1473 2185 c-17 -7 -33 -20 -37 -30 -3 -9 -6 -70 -6 -136 0 -106 2
-121 20 -139 27 -27 81 -26 106 1 17 18 19 37 19 144 0 105 -3 126 -18 143
-25 27 -48 32 -84 17z"/>
<path d="M3589 2186 c-41 -20 -50 -52 -47 -172 3 -94 6 -115 22 -133 25 -27
79 -28 106 -1 18 18 20 33 20 141 0 66 -4 129 -10 139 -14 27 -62 41 -91 26z"/>
<path d="M2254 1997 c-51 -44 -29 -102 59 -163 150 -104 344 -104 494 0 88 61
110 119 59 163 -38 32 -54 29 -120 -21 -67 -53 -112 -69 -186 -69 -74 0 -119
16 -186 69 -66 50 -82 53 -120 21z"/>
</g>
</svg>
